# xmcd
# 
# Track frame offsets:
#     183
#     10930
#     23715
#     40798
#     51840
#     62228
#     74568
#     86145
#     99773
#     112600
#     122488
#     133205
#     146983
#     162425
# 
# Disc length: 2282
# 
# Revision: 4
# Processed by: cddbd v1.5.2PL0 Copyright (c) Steve Scherf et al.
# Submitted via: BonkEnc v1.0.15
# 
DISCID=bf08e80e
DTITLE=Various Artist - Hits of The Sixties Vol 2
DYEAR=0
DGENRE=Rock
TTITLE0=Frankie Avalon - Venus
TTITLE1=Fontella Bass - Rescue Me
TTITLE2=Brook Benton - Rainy Night in Georgia
TTITLE3=Dave Berry - Little Things
TTITLE4=Chiffons - Sweet Talking' Guy
TTITLE5=Coasters - Poison Ivy
TTITLE6=Crystals - Then He Kissed Me
TTITLE7=Jimmy Dean - Big Bad John
TTITLE8=Dixie Cups - Chapel of Love
TTITLE9=Drifters - There Goes My Baby
TTITLE10=Betty Everet - The Shoop Shoop Song
TTITLE11=Eddie Floyd - Knock on Wood
TTITLE12=Fortunes - You've Got Your Troubles
TTITLE13=Fourmost - Hello Little Girl
EXTD=
EXTT0=
EXTT1=
EXTT2=
EXTT3=
EXTT4=
EXTT5=
EXTT6=
EXTT7=
EXTT8=
EXTT9=
EXTT10=
EXTT11=
EXTT12=
EXTT13=
PLAYORDER=
